<svg width="14" height="14" viewBox="0 0 14 14" fill="none" xmlns="http://www.w3.org/2000/svg">
<path d="M6.81096 0.126121C6.8809 -0.0420311 7.1191 -0.0420317 7.18904 0.126121L8.98278 4.43878C9.01226 4.50966 9.07893 4.5581 9.15546 4.56424L13.8113 4.93749C13.9929 4.95205 14.0665 5.1786 13.9282 5.29707L10.3809 8.3357C10.3226 8.38565 10.2971 8.46402 10.3149 8.5387L11.3987 13.082C11.4409 13.2592 11.2482 13.3992 11.0928 13.3043L7.10672 10.8696C7.0412 10.8296 6.9588 10.8296 6.89328 10.8696L2.9072 13.3043C2.75178 13.3992 2.55907 13.2592 2.60133 13.082L3.68508 8.5387C3.70289 8.46402 3.67743 8.38565 3.61912 8.3357L0.0718364 5.29707C-0.0664737 5.1786 0.00713595 4.95205 0.18867 4.93749L4.84454 4.56424C4.92107 4.5581 4.98774 4.50966 5.01722 4.43878L6.81096 0.126121Z" fill="#FFA800"/>
</svg>
